<svg width="35" height="39" viewBox="0 0 35 39" fill="none" xmlns="http://www.w3.org/2000/svg">
<path d="M9.04361 21.9488C8.92523 21.7627 8.77619 21.7291 8.64929 21.6665C7.35818 21.0289 6.06494 20.3946 4.77298 19.7578C4.45659 19.602 4.11423 19.45 4.12274 19.0239C4.13083 18.6238 4.45489 18.4748 4.75935 18.3254C6.07772 17.6771 7.39736 17.0304 8.71359 16.3779C8.82218 16.3242 9.00614 16.3119 8.99805 16.1527C8.99166 16.028 8.82686 16.0165 8.72637 15.9662C7.37138 15.2932 6.01597 14.6202 4.65843 13.9523C4.37057 13.8106 4.11252 13.6471 4.12317 13.2836C4.13296 12.9482 4.37143 12.7826 4.64566 12.6472C8.78215 10.6082 12.9186 8.5692 17.0509 6.52125C17.3724 6.36204 17.647 6.3778 17.9587 6.53189C22.0918 8.57814 26.2275 10.618 30.3631 12.6587C30.6399 12.7954 30.8669 12.9788 30.8579 13.3138C30.849 13.6476 30.6063 13.814 30.3324 13.9494C29.0149 14.6002 27.6991 15.2541 26.3842 15.9101C26.2449 15.9794 26.0814 16.0156 25.9835 16.1633C26.0576 16.3323 26.2309 16.3557 26.3667 16.423C27.6306 17.0504 28.897 17.6724 30.1634 18.2951C30.493 18.4573 30.8601 18.6067 30.8515 19.0494C30.8434 19.4883 30.4713 19.6305 30.1434 19.7923C28.8774 20.4155 27.611 21.0378 26.3463 21.6635C26.2194 21.7261 26.0691 21.758 25.9813 21.8977C26.0571 22.0616 26.2287 22.0884 26.365 22.1569C27.6923 22.8205 29.0213 23.4803 30.3516 24.138C30.6271 24.2742 30.8609 24.4488 30.8571 24.7846C30.8532 25.1184 30.6182 25.2925 30.3431 25.4283C26.2466 27.4498 22.1493 29.4688 18.058 31.501C17.653 31.7019 17.3183 31.6926 16.9116 31.4904C12.8999 29.4944 8.87881 27.5175 4.8607 25.5347C4.7304 25.4704 4.59584 25.4117 4.4732 25.3346C3.99414 25.0345 3.99201 24.493 4.4864 24.2206C4.98291 23.9469 5.49944 23.7102 6.00788 23.4574C7.00986 22.9589 8.01183 22.4613 9.04361 21.9488ZM6.17183 13.2815C6.35025 13.3849 6.45585 13.4543 6.56827 13.5101C10.0767 15.2409 13.5872 16.9679 17.0918 18.7055C17.3852 18.8511 17.6236 18.8362 17.9106 18.694C21.416 16.9572 24.927 15.2307 28.4345 13.4981C28.5418 13.4449 28.6956 13.4351 28.7322 13.2525C28.5934 13.1797 28.4554 13.1035 28.314 13.0337C24.8968 11.3485 21.4744 9.67256 18.0669 7.96728C17.6372 7.75232 17.3145 7.77105 16.8993 7.97835C13.907 9.47292 10.9028 10.9441 7.90239 12.4229C7.34626 12.6974 6.79141 12.9741 6.17183 13.2815ZM28.745 24.8272C28.6734 24.6442 28.5295 24.6254 28.4188 24.5705C27.2196 23.9767 26.0141 23.3952 24.8197 22.7916C24.5429 22.652 24.3198 22.6571 24.0442 22.7946C22.0663 23.783 20.076 24.7463 18.1027 25.7428C17.6666 25.9629 17.3072 25.9544 16.8742 25.7356C14.9136 24.7455 12.9357 23.7898 10.9705 22.8082C10.6843 22.6652 10.451 22.6447 10.1554 22.7946C8.96228 23.4007 7.75548 23.9797 6.55635 24.5735C6.44734 24.6276 6.2983 24.6408 6.24975 24.8157C6.33364 24.8634 6.41753 24.9166 6.5061 24.9604C10.0545 26.7108 13.6046 28.457 17.1488 30.2163C17.4218 30.3517 17.6296 30.3159 17.8808 30.1916C20.9446 28.6754 24.0123 27.1667 27.0783 25.6556C27.6357 25.3814 28.1905 25.1035 28.745 24.8272ZM28.676 19.0486C28.6385 18.8932 28.492 18.8719 28.3817 18.817C27.2099 18.2317 26.0316 17.6604 24.8657 17.0641C24.5646 16.91 24.321 16.9044 24.0136 17.0585C22.0373 18.0512 20.047 19.0162 18.0707 20.0094C17.6675 20.212 17.3243 20.2133 16.9193 20.0094C14.9435 19.0154 12.9527 18.0512 10.976 17.0594C10.669 16.9053 10.425 16.9096 10.1239 17.0636C8.97079 17.6532 7.8053 18.2181 6.64705 18.7974C6.52441 18.8587 6.31831 18.8758 6.32427 19.0439C6.33023 19.2035 6.53208 19.224 6.65642 19.2857C10.138 21.0101 13.6221 22.7286 17.1011 24.4581C17.3771 24.5952 17.6023 24.5995 17.8778 24.4603C19.2933 23.7447 20.7168 23.0453 22.1391 22.3425C24.2001 21.3239 26.2628 20.3078 28.3234 19.2887C28.4494 19.2257 28.601 19.1946 28.676 19.0486Z" fill="url(#paint0_linear_285_756)"/>
<path d="M1.26982 19.0366C1.26982 22.5574 1.27493 26.0786 1.26216 29.5994C1.26088 29.9642 1.36734 30.1784 1.69139 30.3601C3.79924 31.5397 5.89814 32.7346 7.99322 33.9358C8.2402 34.0776 8.41053 34.0827 8.65538 33.9124C9.50789 33.319 10.5546 33.348 11.3432 33.9465C12.1233 34.5386 12.438 35.5377 12.1404 36.4788C11.8538 37.3851 10.9855 38.0339 10.0048 38.0739C8.79846 38.1232 7.67172 37.0629 7.69812 35.8267C7.70877 35.3231 7.51927 35.0822 7.10622 34.8519C4.93279 33.6408 2.77938 32.3949 0.609363 31.1778C0.177147 30.9356 -0.000848615 30.6223 3.04061e-06 30.126C0.00979708 22.7349 0.0102229 15.3438 3.04061e-06 7.95274C-0.000848615 7.43682 0.194606 7.12607 0.642577 6.87619C2.86582 5.63491 5.07204 4.36383 7.29231 3.11744C7.60231 2.94334 7.6994 2.73518 7.69216 2.38442C7.66491 1.1044 8.55829 0.12959 9.82683 0.00869651C10.9302 -0.0960208 12.0041 0.749806 12.2162 1.93277C12.3873 2.88885 12.0207 3.66188 11.2363 4.19654C10.443 4.73758 9.57517 4.75035 8.77376 4.22932C8.41394 3.99519 8.1776 4.02967 7.84333 4.22208C5.78828 5.40547 3.726 6.57694 1.65775 7.73735C1.3635 7.90251 1.26258 8.09704 1.26343 8.4295C1.27408 11.9656 1.26982 15.5009 1.26982 19.0366ZM8.9475 35.7428C8.93856 36.3162 9.37716 36.7964 9.92861 36.8173C10.4967 36.8385 10.9966 36.3567 11.003 35.7807C11.0094 35.1997 10.5788 34.7659 9.98822 34.7582C9.37546 34.7502 8.95687 35.146 8.9475 35.7428ZM9.94223 3.31836C10.5397 3.32815 10.9859 2.91737 11.0025 2.34185C11.0192 1.76292 10.5524 1.27126 9.97545 1.25977C9.42868 1.24913 8.95133 1.72546 8.94792 2.28566C8.94409 2.89523 9.34224 3.30857 9.94223 3.31836Z" fill="url(#paint1_linear_285_756)"/>
<path d="M34.9775 19.0826C34.9775 22.735 34.9682 26.3877 34.9873 30.0401C34.9903 30.6075 34.7923 30.9493 34.2979 31.2243C32.1236 32.4341 29.9694 33.6805 27.7985 34.8962C27.4357 35.0993 27.2632 35.2998 27.2828 35.7616C27.3348 36.9833 26.3924 37.9479 25.1256 38.0654C24.0231 38.1676 22.9632 37.3009 22.7444 36.1188C22.5438 35.0346 23.2873 33.8669 24.3957 33.5745C25.089 33.3914 25.7605 33.4791 26.3456 33.9214C26.5662 34.0883 26.7331 34.0832 26.969 33.9478C29.0773 32.7393 31.1898 31.5376 33.3109 30.3517C33.6238 30.1767 33.7213 29.9694 33.7209 29.6233C33.7124 22.5655 33.7124 15.5082 33.7209 8.45041C33.7213 8.10348 33.62 7.89745 33.3087 7.72335C31.1877 6.5374 29.0751 5.33571 26.9669 4.1272C26.7297 3.99141 26.5679 4.00035 26.3426 4.15487C25.476 4.7487 24.4489 4.73167 23.6522 4.1404C22.8806 3.56701 22.5434 2.56538 22.8167 1.65656C23.1025 0.705586 23.935 0.062383 24.9544 0.00363917C26.1914 -0.0674494 27.3344 1.02953 27.2828 2.31593C27.2641 2.77822 27.4374 2.97744 27.8002 3.18049C29.9843 4.40304 32.1517 5.65454 34.3371 6.87497C34.8004 7.13378 34.9886 7.46156 34.9861 7.99366C34.9703 11.6907 34.9775 15.3869 34.9775 19.0826ZM26.0339 35.7872C26.036 35.1878 25.6268 34.7664 25.0336 34.7583C24.4153 34.7494 23.9741 35.1789 23.9814 35.7816C23.9882 36.3418 24.4524 36.8092 25.0102 36.8173C25.5561 36.8254 26.0322 36.3461 26.0339 35.7872ZM25.0102 3.31799C25.6063 3.31884 26.0262 2.9072 26.0343 2.31338C26.042 1.75148 25.5834 1.26791 25.0349 1.2594C24.4634 1.25046 23.9788 1.73488 23.981 2.31253C23.9835 2.89273 24.4174 3.31671 25.0102 3.31799Z" fill="url(#paint2_linear_285_756)"/>
<defs>
<linearGradient id="paint0_linear_285_756" x1="36.0245" y1="19.4953" x2="11.9532" y2="8.67713" gradientUnits="userSpaceOnUse">
<stop stop-color="#67BDFF"/>
<stop offset="1" stop-color="#D96EFF"/>
</linearGradient>
<linearGradient id="paint1_linear_285_756" x1="14.6254" y1="19.7428" x2="1.60695" y2="17.9653" gradientUnits="userSpaceOnUse">
<stop stop-color="#67BDFF"/>
<stop offset="1" stop-color="#D96EFF"/>
</linearGradient>
<linearGradient id="paint2_linear_285_756" x1="37.3588" y1="19.742" x2="24.3217" y2="17.9593" gradientUnits="userSpaceOnUse">
<stop stop-color="#67BDFF"/>
<stop offset="1" stop-color="#D96EFF"/>
</linearGradient>
</defs>
</svg>
